<mxfile host="app.diagrams.net" modified="2023-11-26T16:58:40.502Z" agent="Mozilla/5.0 (Windows NT 10.0; Win64; x64) AppleWebKit/537.36 (KHTML, like Gecko) Chrome/117.0.0.0 Safari/537.36" version="22.1.4" etag="6AcYeVZpcuMXn9_EQ6DD" type="github">
  <diagram name="Page-1" id="kxty7NA2UWrw-4V8htJV">
    <mxGraphModel>
      <root>
        <mxCell id="0" />
        <mxCell id="1" parent="0" />
      </root>
    </mxGraphModel>
  </diagram>
</mxfile>
